<svg width="96" height="96" xmlns="http://www.w3.org/2000/svg" xmlns:xlink="http://www.w3.org/1999/xlink" xml:space="preserve" overflow="hidden"><g transform="translate(-312 -211)"><path d="M360 291C342.4 291 328 276.6 328 259 328 241.4 342.4 227 360 227 377.6 227 392 241.4 392 259 392 276.6 377.6 291 360 291ZM360 221C339 221 322 238 322 259 322 280 339 297 360 297 381 297 398 280 398 259 398 238 381 221 360 221Z" fill="#A1887F"/><path d="M362 239 358 239 358 259C358 259.6 358.2 260.1 358.6 260.4L372.7 274.5 375.5 271.7 362 258.2 362 239Z" fill="#A1887F"/><path d="M362 233C362 234.105 361.105 235 360 235 358.895 235 358 234.105 358 233 358 231.895 358.895 231 360 231 361.105 231 362 231.895 362 233Z" fill="#A1887F"/><path d="M362 285C362 286.105 361.105 287 360 287 358.895 287 358 286.105 358 285 358 283.895 358.895 283 360 283 361.105 283 362 283.895 362 285Z" fill="#A1887F"/><path d="M336 259C336 260.105 335.105 261 334 261 332.895 261 332 260.105 332 259 332 257.895 332.895 257 334 257 335.105 257 336 257.895 336 259Z" fill="#A1887F"/><path d="M388 259C388 260.105 387.105 261 386 261 384.895 261 384 260.105 384 259 384 257.895 384.895 257 386 257 387.105 257 388 257.895 388 259Z" fill="#A1887F"/></g></svg>